<svg width="16" height="18" viewBox="0 0 16 18" fill="none" xmlns="http://www.w3.org/2000/svg">
<path d="M16 14.5714V15.4286H0V14.5714L1.77778 12.8571V7.71429C1.77778 5.05714 3.58222 2.71714 6.22222 1.96286V1.71429C6.22222 1.25963 6.40952 0.823593 6.74292 0.502103C7.07632 0.180612 7.5285 0 8 0C8.4715 0 8.92368 0.180612 9.25708 0.502103C9.59048 0.823593 9.77778 1.25963 9.77778 1.71429V1.96286C12.4178 2.71714 14.2222 5.05714 14.2222 7.71429V12.8571L16 14.5714ZM9.77778 16.2857C9.77778 16.7404 9.59048 17.1764 9.25708 17.4979C8.92368 17.8194 8.4715 18 8 18C7.5285 18 7.07632 17.8194 6.74292 17.4979C6.40952 17.1764 6.22222 16.7404 6.22222 16.2857" fill="#1F455A"/>
</svg>
