<svg width="22" height="22" viewBox="0 0 22 22" fill="none" xmlns="http://www.w3.org/2000/svg">
<path d="M16.7888 17.5874L17.506 16.8849C20.8239 16.9918 20.8749 16.8771 21.0207 16.5408L21.9323 14.3525L22 14.1451L21.9259 13.9636C21.8869 13.8677 21.7665 13.5817 19.6948 11.6339V10.6093C22.0853 8.33858 22.0343 8.22229 21.898 7.88993L20.9904 5.6789C20.8542 5.34732 20.8024 5.21768 17.5084 5.30647L16.7912 4.57574C16.8653 3.49937 16.8276 2.41837 16.6789 1.34955L16.5865 1.1429L14.2167 0.121457C13.8677 -0.0356882 13.745 -0.0922606 11.5076 2.31049L10.502 2.29556C8.19841 -0.129189 8.08924 -0.085189 7.74422 0.0523131L5.54104 0.930755C5.19602 1.06826 5.0741 1.11697 5.20797 4.41702L4.49641 5.11632C1.18008 5.00946 1.12908 5.12575 0.984861 5.46047L0.0717133 7.6495L0 7.85929L0.0749005 8.04158C0.113944 8.13587 0.229482 8.41873 2.30598 10.3689V11.3903C-0.0844619 13.6611 -0.0326693 13.7774 0.104383 14.1105L1.01116 16.3239C1.1498 16.6626 1.1992 16.7828 4.49243 16.6979L5.20956 17.4326C5.13523 18.5073 5.1718 19.5866 5.31873 20.6541L5.41116 20.8623L7.79602 21.89C8.14263 22.033 8.26295 22.0841 10.494 19.69L11.4996 19.7025C13.8064 22.1304 13.9243 22.0833 14.2614 21.9489L16.4598 21.0728C16.8072 20.9369 16.9283 20.889 16.7888 17.5874ZM7.34024 12.4613C7.0622 11.7447 7.00495 10.9632 7.17568 10.2147C7.34642 9.46618 7.73753 8.78407 8.29994 8.25394C8.86235 7.72381 9.57101 7.36928 10.337 7.23483C11.103 7.10037 11.8922 7.19199 12.6056 7.49818C13.3189 7.80437 13.9247 8.31149 14.3469 8.95592C14.7691 9.60035 14.9889 10.3534 14.9787 11.1205C14.9685 11.8877 14.7287 12.6347 14.2895 13.268C13.8503 13.9013 13.2312 14.3926 12.51 14.6802C11.5258 15.0597 10.4293 15.0392 9.46045 14.6234C8.49156 14.2075 7.72921 13.4301 7.34024 12.4613Z" fill="#063A58"/>
</svg>
