<svg width="16" height="16" viewBox="0 0 16 16" fill="none" xmlns="http://www.w3.org/2000/svg">
<path d="M14.7602 1.24228C13.9645 0.446855 12.8854 0 11.7602 0C10.635 0 9.55594 0.446855 8.76026 1.24228L1.24262 8.75868C0.446983 9.55419 0 10.6331 0 11.7581C0 12.8831 0.446983 13.9621 1.24262 14.7576C2.03825 15.5531 3.11737 16 4.24256 16C5.36776 16 6.44688 15.5531 7.24251 14.7576L14.7602 7.23896C15.5541 6.44303 16 5.36476 16 4.24062C16 3.11648 15.5541 2.03822 14.7602 1.24228ZM5.98402 13.4986C5.7589 13.7422 5.4869 13.9378 5.18432 14.0738C4.88174 14.2097 4.55482 14.2832 4.22315 14.2897C3.89149 14.2963 3.56192 14.2358 3.2542 14.1119C2.94648 13.988 2.66696 13.8033 2.43239 13.5688C2.19782 13.3342 2.01304 13.0547 1.88913 12.7471C1.76522 12.4394 1.70473 12.1099 1.71128 11.7783C1.71784 11.4467 1.79131 11.1198 1.92728 10.8173C2.06326 10.5147 2.25894 10.2428 2.5026 10.0177L5.62995 6.88791L9.11137 10.3688L5.98402 13.4986ZM13.5024 5.98215L10.3706 9.10973L6.88918 5.62889L10.0202 2.49909C10.4878 2.06719 11.1044 1.83299 11.7408 1.84557C12.3772 1.85815 12.9841 2.11653 13.4342 2.56656C13.8843 3.01659 14.1427 3.62334 14.1553 4.25966C14.1679 4.89598 13.9336 5.51247 13.5017 5.97993L13.5024 5.98215ZM12.7787 4.11139C12.8616 4.19395 12.9273 4.29206 12.9722 4.40009C13.0171 4.50811 13.0401 4.62393 13.0401 4.7409C13.0401 4.85787 13.0171 4.97369 12.9722 5.08171C12.9273 5.18974 12.8616 5.28785 12.7787 5.37041L11.001 7.14787C10.9183 7.23054 10.8201 7.29611 10.7121 7.34085C10.6041 7.38559 10.4883 7.40862 10.3713 7.40862C10.2544 7.40862 10.1386 7.38559 10.0306 7.34085C9.92257 7.29611 9.82441 7.23054 9.74173 7.14787C9.65904 7.0652 9.59346 6.96706 9.54871 6.85904C9.50396 6.75103 9.48093 6.63526 9.48093 6.51835C9.48093 6.40144 9.50396 6.28567 9.54871 6.17766C9.59346 6.06965 9.65904 5.97151 9.74173 5.88884L11.5195 4.11139C11.6021 4.02853 11.7002 3.96279 11.8082 3.91794C11.9163 3.87308 12.0321 3.84999 12.1491 3.84999C12.2661 3.84999 12.3819 3.87308 12.49 3.91794C12.598 3.96279 12.6961 4.02853 12.7787 4.11139Z" fill="#1F455A"/>
</svg>
