<svg width="20" height="22" viewBox="0 0 20 22" fill="none" xmlns="http://www.w3.org/2000/svg">
<path d="M17.7778 19.8H2.22222V7.7H17.7778M17.7778 2.2H16.6667V0H14.4444V2.2H5.55556V0H3.33333V2.2H2.22222C1.63285 2.2 1.06762 2.43179 0.650874 2.84437C0.234126 3.25695 0 3.81652 0 4.4V19.8C0 20.3835 0.234126 20.9431 0.650874 21.3556C1.06762 21.7682 1.63285 22 2.22222 22H17.7778C18.3671 22 18.9324 21.7682 19.3491 21.3556C19.7659 20.9431 20 20.3835 20 19.8V4.4C20 3.81652 19.7659 3.25695 19.3491 2.84437C18.9324 2.43179 18.3671 2.2 17.7778 2.2ZM15.0333 11.066L13.8556 9.9L8.43333 15.268L6.07778 12.936L4.9 14.102L8.43333 17.6L15.0333 11.066Z" fill="#063A58"/>
</svg>
