<svg width="22" height="22" viewBox="0 0 22 22" fill="none" xmlns="http://www.w3.org/2000/svg">
<path fill-rule="evenodd" clip-rule="evenodd" d="M11.7107 1.76515C12.8412 0.63485 14.3743 -9.41845e-05 15.9729 1.0479e-08C17.5715 9.42055e-05 19.1045 0.635219 20.2348 1.76566C21.3651 2.89609 22.0001 4.42924 22 6.02782C21.9999 7.62641 21.3648 9.15948 20.2343 10.2898L10.2893 20.2348C9.15884 21.3651 7.6257 22.0001 6.02711 22C4.42853 21.9999 2.89546 21.3648 1.76515 20.2343C0.63485 19.1039 -9.41845e-05 17.5708 1.0479e-08 15.9722C9.42055e-05 14.3736 0.635219 12.8405 1.76566 11.7102L11.7107 1.76515ZM18.8129 8.86834L14.5516 13.1307L8.86884 7.4479L13.1312 3.18659C13.5027 2.80658 13.9459 2.50404 14.4352 2.2965C14.9245 2.08896 15.45 1.98055 15.9815 1.97752C16.5129 1.9745 17.0397 2.07694 17.5313 2.27891C18.0229 2.48087 18.4695 2.77835 18.8454 3.15411C19.2212 3.52988 19.5188 3.97647 19.7208 4.46803C19.9229 4.95959 20.0254 5.48634 20.0225 6.0178C20.0195 6.54925 19.9112 7.07485 19.7038 7.56415C19.4963 8.05345 19.1939 8.49673 18.8139 8.86834H18.8129Z" fill="#063A58"/>
</svg>
